<svg width="16" height="18" viewBox="0 0 16 18" fill="none" xmlns="http://www.w3.org/2000/svg">
<path fill-rule="evenodd" clip-rule="evenodd" d="M4.24271 13.3714C6.58586 15.7145 10.3848 15.7145 12.728 13.3714C15.0711 11.0282 15.0711 7.22925 12.728 4.8861C10.3848 2.54296 6.58586 2.54296 4.24271 4.8861C1.89957 7.22925 1.89957 11.0282 4.24271 13.3714ZM5.8337 6.47709C6.05337 6.25742 6.40953 6.25742 6.6292 6.47709L8.48535 8.33325L10.3415 6.47709C10.5612 6.25742 10.9173 6.25742 11.137 6.47709C11.3567 6.69676 11.3567 7.05292 11.137 7.27259L9.28085 9.12874L11.137 10.9849C11.3567 11.2046 11.3567 11.5607 11.137 11.7804C10.9173 12.0001 10.5612 12.0001 10.3415 11.7804L8.48535 9.92424L6.6292 11.7804C6.40953 12.0001 6.05337 12.0001 5.8337 11.7804C5.61403 11.5607 5.61403 11.2046 5.8337 10.9849L7.68986 9.12874L5.8337 7.27259C5.61403 7.05292 5.61403 6.69676 5.8337 6.47709Z" fill="#8E8E93"/>
</svg>
