<svg width="11" height="19" viewBox="0 0 11 19" fill="none" xmlns="http://www.w3.org/2000/svg">
<path fill-rule="evenodd" clip-rule="evenodd" d="M3.53568 9.5L9.72217 3.0189C10.1786 2.54071 10.1786 1.76541 9.72217 1.28721C9.26572 0.809022 8.52565 0.809022 8.0692 1.28721L1.05621 8.63415C0.599753 9.11235 0.599753 9.88765 1.05621 10.3658L8.0692 17.7128C8.52565 18.191 9.26572 18.191 9.72217 17.7128C10.1786 17.2346 10.1786 16.4593 9.72217 15.9811L3.53568 9.5Z" fill="#444546"/>
<mask id="mask0" mask-type="alpha" maskUnits="userSpaceOnUse" x="0" y="0" width="11" height="19">
<path fill-rule="evenodd" clip-rule="evenodd" d="M3.53568 9.5L9.72217 3.0189C10.1786 2.54071 10.1786 1.76541 9.72217 1.28721C9.26572 0.809022 8.52565 0.809022 8.0692 1.28721L1.05621 8.63415C0.599753 9.11235 0.599753 9.88765 1.05621 10.3658L8.0692 17.7128C8.52565 18.191 9.26572 18.191 9.72217 17.7128C10.1786 17.2346 10.1786 16.4593 9.72217 15.9811L3.53568 9.5Z" fill="white"/>
</mask>
<g mask="url(#mask0)">
</g>
</svg>
