<svg width="19" height="19" viewBox="0 0 19 19" fill="none" xmlns="http://www.w3.org/2000/svg">
<path d="M17.6503 0.233607L10.0451 7.8388C9.73361 8.15027 9.24044 8.15027 8.95492 7.8388L1.34973 0.233607C1.03825 -0.0778688 0.545082 -0.0778688 0.259563 0.233607C-0.0519125 0.545082 -0.0519125 1.03825 0.259563 1.32377L7.86475 8.92896C8.17623 9.24044 8.17623 9.73361 7.86475 10.0191L0.233607 17.6503C-0.0778688 17.9617 -0.0778688 18.4549 0.233607 18.7404C0.545082 19.0519 1.03825 19.0519 1.32377 18.7404L8.92896 11.1352C9.24044 10.8238 9.73361 10.8238 10.0191 11.1352L17.6503 18.7664C17.9617 19.0779 18.4549 19.0779 18.7404 18.7664C19.0519 18.4549 19.0519 17.9617 18.7404 17.6762L11.1612 10.0451C10.8497 9.73361 10.8497 9.24044 11.1612 8.95492L18.7664 1.34973C19.0779 1.03825 19.0779 0.545082 18.7664 0.259563C18.4549 -0.0519125 17.9617 -0.0519126 17.6503 0.233607Z" fill="#141821"/>
</svg>
