<svg width="120" height="120" viewBox="0 0 120 120" fill="none" xmlns="http://www.w3.org/2000/svg">
<path fill-rule="evenodd" clip-rule="evenodd" d="M0 60C0 26.865 26.865 0 60 0C93.135 0 120 26.865 120 60C120 93.135 93.135 120 60 120C26.865 120 0 93.135 0 60ZM7.5 60C7.5 88.95 31.05 112.5 60 112.5C88.9425 112.5 112.5 88.95 112.5 60C112.5 31.05 88.95 7.5 60 7.5C31.05 7.5 7.5 31.05 7.5 60Z" fill="#FF8C00" fill-opacity="0.3"/>
<path d="M85.5139 35.8583C83.0914 34.2683 79.8364 34.9508 78.2464 37.3808L52.9264 76.0733L40.8214 64.8683C38.6914 62.9033 35.3689 63.0308 33.3964 65.1608C31.4239 67.2908 31.5589 70.6058 33.6889 72.5783L50.4214 88.0583C50.4814 88.1108 50.5564 88.1258 50.6164 88.1783C50.7664 88.2983 50.8564 88.4633 51.0139 88.5758C51.2389 88.7258 51.4939 88.7558 51.7339 88.8608C52.0189 88.9958 52.2964 89.1233 52.5964 89.2058C52.8889 89.2808 53.1739 89.3183 53.4739 89.3408C53.9014 89.3858 54.3139 89.3858 54.7339 89.3258C54.9064 89.2958 55.0714 89.2508 55.2439 89.2058C55.7614 89.0783 56.2414 88.8758 56.7139 88.5908C56.7964 88.5383 56.8639 88.4783 56.9464 88.4258C57.2539 88.2158 57.5839 88.0583 57.8464 87.7733C58.0339 87.5708 58.1164 87.3083 58.2664 87.0833C58.2739 87.0758 58.2889 87.0683 58.2889 87.0608L87.0289 43.1333C88.6189 40.7033 87.9364 37.4483 85.5139 35.8583Z" fill="#FF9E17"/>
</svg>
